<svg width="23" height="27" viewBox="0 0 23 27" fill="none" xmlns="http://www.w3.org/2000/svg">
<path d="M11.05 12.75C7.52781 12.75 4.675 9.89719 4.675 6.375C4.675 2.85281 7.52781 0 11.05 0C14.5722 0 17.425 2.85281 17.425 6.375C17.425 9.89719 14.5722 12.75 11.05 12.75ZM9.42969 15.725H12.6703C13.1856 15.725 13.6 16.1394 13.6 16.6547C13.6 16.8778 13.5203 17.0903 13.3769 17.2603L11.9212 18.9603L13.5681 25.075H13.6L15.4381 17.7172C15.555 17.255 16.0278 16.9734 16.4741 17.1434C19.7625 18.3972 22.1 21.5847 22.1 25.3141C22.1 26.1163 21.4466 26.7697 20.6444 26.7697L1.45562 26.775C0.653437 26.775 0 26.1216 0 25.3194C0 21.59 2.3375 18.4025 5.62594 17.1488C6.07219 16.9788 6.545 17.2603 6.66187 17.7225L8.5 25.0803H8.53187L10.1788 18.9656L8.72313 17.2656C8.57969 17.0956 8.5 16.8831 8.5 16.66C8.5 16.1447 8.91437 15.7303 9.42969 15.7303V15.725Z" fill="#E3C05A"/>
</svg>
